/* XPM */
static char *result[] = {
/* columns rows colors chars-per-pixel */
"40 40 219 2 ",
"   c #07070E",
".  c #08070D",
"X  c #07080E",
"o  c #09080E",
"O  c #040415",
"+  c #070913",
"@  c #0B0B14",
"#  c #0B0D1B",
"$  c #05061C",
"%  c #110E1B",
"&  c #0D101D",
"*  c #12111E",
"=  c #0A0E22",
"-  c #08092B",
";  c #0D1123",
":  c #0D132A",
">  c #151423",
",  c #191727",
"<  c #13152A",
"1  c #191728",
"2  c #15192C",
"3  c #1B1A2B",
"4  c #080B39",
"5  c #0E1533",
"6  c #0E1739",
"7  c #151B33",
"8  c #1B1D32",
"9  c #131B3C",
"0  c #1B1E3B",
"q  c #121432",
"w  c #201E32",
"e  c #1E2135",
"r  c #1D213B",
"t  c #232236",
"y  c #25243A",
"u  c #28263A",
"i  c #262A3E",
"p  c #2A2A3E",
"a  c #0F1D49",
"s  c #131D43",
"d  c #151842",
"f  c #1C2343",
"g  c #14224D",
"h  c #192649",
"j  c #1B2C5A",
"k  c #172656",
"l  c #232643",
"z  c #242944",
"x  c #2C2D43",
"c  c #22274C",
"v  c #252A4B",
"b  c #2C2D4B",
"n  c #2D3146",
"m  c #2B324C",
"M  c #31324C",
"N  c #303247",
"B  c #2C3153",
"V  c #2B365A",
"C  c #323454",
"Z  c #353C52",
"A  c #393D53",
"S  c #33355A",
"D  c #373B5B",
"F  c #212D55",
"G  c #1A2B6A",
"H  c #1D326C",
"J  c #243262",
"K  c #293668",
"L  c #363A63",
"P  c #343D6B",
"I  c #383D6A",
"U  c #313767",
"Y  c #273C79",
"T  c #313B74",
"R  c #212A62",
"E  c #3E445C",
"W  c #394565",
"Q  c #3A4374",
"!  c #3A4779",
"~  c #2D4770",
"^  c #47495F",
"/  c #414D68",
"(  c #4B5B76",
")  c #555B71",
"_  c #494C71",
"`  c #68687D",
"'  c #0F1196",
"]  c #1E2A9F",
"[  c #24398B",
"{  c #181AA8",
"}  c #070CA0",
"|  c #2B1BB5",
" . c #3219B5",
".. c #1D26A7",
"X. c #1E34BA",
"o. c #1E29B3",
"O. c #2526A9",
"+. c #2B33AD",
"@. c #3927BA",
"#. c #2B3CB7",
"$. c #2B3CBD",
"%. c #2737B6",
"&. c #2B2CB4",
"*. c #4926BF",
"=. c #364A85",
"-. c #3C5498",
";. c #324E8E",
":. c #286085",
">. c #2F4BA1",
",. c #3754A5",
"<. c #2443BC",
"1. c #2E4EBF",
"2. c #2746BA",
"3. c #3243BA",
"4. c #3655BC",
"5. c #3C6FAE",
"6. c #3F6EB2",
"7. c #2D6AA4",
"8. c #424C87",
"9. c #41558B",
"0. c #475894",
"q. c #4C688D",
"w. c #557489",
"e. c #4F709E",
"r. c #55729D",
"t. c #687287",
"y. c #7A7E91",
"u. c #425DA2",
"i. c #4B5ABD",
"p. c #4C66A6",
"a. c #4B6AB9",
"s. c #3B3CC2",
"d. c #323FD3",
"f. c #3235CF",
"g. c #4030C4",
"h. c #2E43C1",
"j. c #2643C9",
"k. c #2D58CB",
"l. c #3559C8",
"z. c #374AD6",
"x. c #2A5DD6",
"c. c #3956D9",
"v. c #354CC3",
"b. c #3668CB",
"n. c #2D66D3",
"m. c #3869D3",
"M. c #3C7AD4",
"N. c #3D75D1",
"B. c #3676C1",
"V. c #3F49E0",
"C. c #3B57E4",
"Z. c #3978E3",
"A. c #4548CB",
"S. c #544CD5",
"D. c #4951D0",
"F. c #4F5AD3",
"G. c #5556D4",
"H. c #4E53CE",
"J. c #456DD3",
"K. c #4067DB",
"L. c #5668DA",
"P. c #587ADA",
"I. c #516ECE",
"U. c #6B76DE",
"Y. c #5750E0",
"T. c #5665E6",
"R. c #486FE6",
"E. c #6679E6",
"W. c #7778EC",
"Q. c #6C8598",
"!. c #5C8BAB",
"~. c #7094AC",
"^. c #77A3B6",
"/. c #3285D7",
"(. c #3B88E8",
"). c #3E91E2",
"_. c #4588DD",
"`. c #4E93D8",
"'. c #6687C6",
"]. c #698FCB",
"[. c #7EAFD2",
"{. c #5A87E6",
"}. c #5695E9",
"|. c #539CFF",
" X c #4A93F4",
".X c #6687EE",
"XX c #639DE8",
"oX c #7B8EF2",
"OX c #6C9FF2",
"+X c #7898F5",
"@X c #7192EF",
"#X c #53A3E3",
"$X c #68A4E8",
"%X c #77A5EC",
"&X c #7EC0E3",
"*X c #8B8DA0",
"=X c #9099AA",
"-X c #91A6B6",
";X c #9FB9CD",
":X c #B0BBCD",
">X c #A1B4C3",
",X c #939FEA",
"<X c #86A3F0",
"1X c #93AEF9",
"2X c #97B6F5",
"3X c #91B7EC",
"4X c #98C2D9",
"5X c #95C9F8",
"6X c #9AD3F9",
"7X c #93CDF0",
"8X c #A4C6FA",
"9X c #ADD9FB",
"0X c #AED7E8",
"qX c #B8E9FD",
"wX c #BEF6FF",
"eX c #ADE8FC",
"rX c #CDE4FF",
"tX c #D4F9FE",
"yX c #E2F7FE",
/* pixels */
"1 1 3 3 , 3 3 3 3 3 , 3 3 3 3 3 1 3 3 8 2 3 e e e 2 2 3 3 3 3 , , , 3 , , 3 3 3 ",
"3 3 8 3 3 3 3 3 3 3 3 3 3 3 3 3 8 w y u i e n m i e e 2 3 3 3 3 3 3 3 w 3 3 3 3 ",
"t w w w w w w w w w w w w w w t t p n E E E W W ~ z r e w w e e w w w w t w w w ",
"t t t t y t t t t t t t t y y u n A ^ ) ) ( w.q.~ E i i t t t t u t t u t t t t ",
"u p u p u u u u p u u u i i i E E ^ ` *Xy.t.~.!.0.U b x i u u p p u u u u u u u ",
"p p p p p p p p p p p p p p Z E ) y.*X=X>X-X[.].0.P S B m x x u p p p p p p p p ",
"p p x p x x x x x x n n N E W ) t.*X-X:XtX0X[.'.8.T I L C b b x p p p N p N p N ",
"n N x x N x x x x n x n N E ( w.Q.~.;XyXyXqX%Xa.8._ ! I S M N n N p N p N p N p ",
"p N p N x x x x N x N M D / w.~.^.4XqXyXtX6X}.a.=.8.=.I S M M x N p N N N p p N ",
"N p p p x x x x p N M C I ( r.!.0XtXeXqX9X5XXXP.,.Q I I S M M x N p p p N p N p ",
"p x x p x p x x x x M D _ q.r.~.rX9X8X8X3X#XG.S.I.P I L S b x x p p p p p p p N ",
"p p p p p x u u x N C I 8.p.p.3X8X1XoX%X Xk.&.S.T.P S L B b x x p p p p p p p p ",
"u u u u u u i u x b L ! 0.u.].5X2X@X.X}.n.1.] $.Y.=.b S B b l x u u u i u u u i ",
"u u u t t u y u v B U ;.,.p.5X2X<X.X{.b.2.1.] +.F.-.v B b b b w u u t t t u t t ",
"w t t t t t t y b V Q -.,.[.6XoXE.}.m.2.2.4.O.3.A.l.B c b v l w t t t t t t t t ",
"w w w w w w t t B K =.>.I.9XOXT..Xm.<.2.#.P.3.o.h.K.! l v v l u w w w w w w w e ",
"3 3 3 3 8 3 e e c J Y [ '.9XoXE.%Xx.d.h.A.U.{ } { c.5.r v z l r e 8 3 3 8 3 3 3 ",
"3 3 3 3 3 1 3 8 0 F J K ;.5X,Xs.z.Z.l.H.U.I.{ ..X.X.b.F r f f 8 8 3 1 3 3 3 3 3 ",
"* 3 3 , > > , 8 x s h R G }.L.| | d.R.H.U.+.' ] %.X.n.~ 8 f r 8 3 , , , , , , , ",
"* * * > * > * , 8 8 0 h s 6.T.@. . .c._.L.{ ' { O.f.M.v 0 l 0 7 2 , * * * * * * ",
"* * * * * , * * > < 2 0 q >.T.*.@.@.f.).J.{ O.O.#.k.B.0 9 0 7 < > * * * * * * * ",
"* * % % % % % % % ; < q < G K.*.s.s.v./.J. .&.$.$.x.7.; 7 < : < * % & & % % % % ",
"@ @ @ @ @ @ @ @ % # = < : a F.S.A.D.m./.D.@.%.%.<.(.:.+ 2 < ; ; & * @ @ o @ % @ ",
"@ @ @ o @ @ @ @ @ # # # : - a.}.P.P._.#XA.s.#.2.M.`.h # : ; & & % @ @ @ @ @ o @ ",
"o o o o o o o o + @ @ # ; = k (.C.C.x.P.L.1.b.N.{.Y + 9 ; # # @ @ o @ o o o o o ",
"o o o o o o o o o + @ # # : = Y  XC.d.z.{.k.N..Xi.= # < & # @ + o o o o o o o o ",
"o o o . o o o o . X + + # # : - 6.|.C.V.(.$X$X{.s # 7 # @ + + X . . . . o . . . ",
"o o . . o o o o . o + + # = # = 4 _.OXY.R.7X&Xh $ # # @ + + + X . . . . o . . . ",
". o o o . . . . o o   + # : # = - k +XW.+X4Xv O # # @ + + o X o . . . . . . o o ",
"o o o o . . . . o o o + @ + + # : - T 1X3XF O & @ @ + o o + o X o . . . . . . o ",
"o o o o o o o o o + + + + # # = - 6 4 0.I $ = # # @ @ + o o o o o o o o o o o o ",
"o o o @ @ o o o o @ + @ # # = = 5 6 s 4 4 6 5 : = # # @ @ @ + + @ @ o @ o @ o @ ",
"@ @ @ @ o @ @ @ @ @ o @ @ # ; 5 6 a a H k a g 6 5 : & # @ @ % @ @ o @ @ @ @ @ @ ",
"@ % @ % % % % @ @ % % % * & > 5 9 g G -.-.H k a 9 : ; & # @ @ % @ % % % @ % % @ ",
"% % % % % % % % % % % * & * ; < 6 g H H ! ~ k s 7 < & & * % % & * % % % % % % % ",
"* * * * * * * * * * * * * & > < 2 f g k J ~ F e 2 ; > * * * * * * * * * * * * * ",
"* * * * * > * > * > * > * > > > 2 7 r r r f f 8 ; < ; * * > * > * * * > * * > > ",
", , > , > , > > > > > > > > > > < 2 2 2 7 8 2 2 , > > > > > > > * , > > > > > > ",
", , , * , > , > > 1 > 1 1 > > 1 < , 1 2 1 1 1 > , , > , , , > , , , > , , > 1 > ",
", , , , , , , , , 1 , , , , , 1 1 1 1 1 1 1 1 , , , , , , , , , , , , , , , 1 , "
};
