/* XPM */
static char *result[] = {
/* columns rows colors chars-per-pixel */
"40 40 178 2 ",
"   c #010101",
".  c #0A0305",
"X  c #070308",
"o  c #0B040B",
"O  c #150203",
"+  c #1B0304",
"@  c #12050D",
"#  c #1C050C",
"$  c #1C080D",
"%  c #0F0511",
"&  c #130612",
"*  c #1C0714",
"=  c #140815",
"-  c #1E0916",
";  c #150619",
":  c #1B061A",
">  c #1B091C",
",  c #250204",
"<  c #2C0405",
"1  c #24050D",
"2  c #2B050A",
"3  c #350304",
"4  c #3A0202",
"5  c #35060A",
"6  c #3E070A",
"7  c #32080D",
"8  c #3B0B09",
"9  c #230713",
"0  c #2B0713",
"q  c #230916",
"w  c #2A0915",
"e  c #23071A",
"r  c #24091B",
"t  c #2C091A",
"y  c #320711",
"u  c #3A0712",
"i  c #3D0911",
"p  c #33071B",
"a  c #320A1D",
"s  c #3B0B1D",
"d  c #1C0821",
"f  c #210725",
"g  c #230A23",
"h  c #2B0922",
"j  c #2C0A2C",
"k  c #3B0623",
"l  c #340A22",
"z  c #390B22",
"x  c #32092A",
"c  c #3C0B2B",
"v  c #320723",
"b  c #2B0731",
"n  c #2C0B32",
"m  c #380A32",
"M  c #360B3C",
"N  c #4D0303",
"B  c #4C0A07",
"V  c #490909",
"C  c #5C0907",
"Z  c #5B0B0A",
"A  c #470B10",
"S  c #4A0B12",
"D  c #420A19",
"F  c #510D17",
"G  c #580D15",
"H  c #5D1412",
"J  c #630505",
"K  c #6F0000",
"L  c #660708",
"P  c #67090D",
"I  c #6C0B0A",
"U  c #770603",
"Y  c #7C0803",
"T  c #780504",
"R  c #7F100C",
"E  c #640B12",
"W  c #640C1B",
"Q  c #6E1111",
"!  c #691A17",
"~  c #641A12",
"^  c #7E1210",
"/  c #7C1D16",
"(  c #74261D",
")  c #440C2C",
"_  c #4A092C",
"`  c #420F30",
"'  c #4C0D38",
"]  c #530C38",
"[  c #510C35",
"{  c #5A2222",
"}  c #6D2F2F",
"|  c #440E47",
" . c #8F0F00",
".. c #850E0E",
"X. c #8E0B0C",
"o. c #920D0F",
"O. c #84120C",
"+. c #9C1700",
"@. c #951D0D",
"#. c #830B15",
"$. c #861515",
"%. c #981510",
"&. c #901D17",
"*. c #98141D",
"=. c #8B211F",
"-. c #9A2516",
";. c #9E3517",
":. c #A52C00",
">. c #A2210F",
",. c #AD2018",
"<. c #AA2916",
"1. c #A7371A",
"2. c #A83C1E",
"3. c #A63C1B",
"4. c #822E23",
"5. c #8C332F",
"6. c #943A34",
"7. c #A33021",
"8. c #A83D28",
"9. c #B73622",
"0. c #B73E2B",
"q. c #C53922",
"w. c #8F4237",
"e. c #90493E",
"r. c #AD492D",
"t. c #B44321",
"y. c #A14139",
"u. c #BA4432",
"i. c #BF5939",
"p. c #C54530",
"a. c #C7523E",
"s. c #D35439",
"d. c #BE5C46",
"f. c #B85D56",
"g. c #B7635C",
"h. c #B96C62",
"j. c #BF7166",
"k. c #BD7674",
"l. c #C75C46",
"z. c #CF6147",
"x. c #C36148",
"c. c #D5664D",
"v. c #C46852",
"b. c #C96D55",
"n. c #CA7157",
"m. c #C2715A",
"M. c #D7725A",
"N. c #C57065",
"B. c #CB7C6A",
"V. c #BD8374",
"C. c #C48074",
"Z. c #D78278",
"A. c #D48275",
"S. c #CD907C",
"D. c #CE958D",
"F. c #D89682",
"G. c #D29C93",
"H. c #DC9B95",
"J. c #C79994",
"K. c #DEA99B",
"L. c #E2A18E",
"P. c #E7A69B",
"I. c #E4A496",
"U. c #DBB3A8",
"Y. c #DBBAB2",
"T. c #E5B9AF",
"R. c #E2B3AB",
"E. c #E5C4BB",
"W. c #D8CCC9",
"Q. c #F2CEC9",
"!. c #EFD9D4",
"~. c #E9DAD9",
"^. c #F2DADA",
"/. c #F1E1DF",
"(. c #EBEFEF",
"). c #F1E7E5",
"_. c #F6EAE6",
"`. c #F2EDEC",
/* pixels */
"                                                          X X                   ",
"                                  X X X     o                 ; % X             ",
"                                    X X o X       o X X     X   X X X           ",
"                            X o               X   X                 % o         ",
"                      o X     X                         X X   X       X         ",
"                X . o X                                   X X X       o > X     ",
"                  X X             X         o o               o X       ; b     ",
"                            .     . o & o @ o   @ X   X         X X       % f   ",
"            X             X o   . 9 p 0 p k 0 a * * X o                     d o ",
"                      o o o o q a p 0 $ r v h h l r &                         X ",
"                    o o o O t a + . X X X X X X & & r &     o       X   X       ",
"          X       X o   @ a 9 O   + S A G A 1 @ & X * r @ X o         o o       ",
"                  X   . a $ . * i ^ ..L L I C 5 7 + X e t & X         o o       ",
"        X           X w * O q E O.Z 3 O + . O 3 4 A # X * : @ X         o X     ",
"        X         . @ # . @ P $.6 3 N ~ { } , O + , 5 . o h h X         X @     ",
"                o o w # X 2 ..V 3 6.H.Z.j.P.g.H O X , 6 * r m @   = X     X     ",
"      X         X @ z . & W I N 5.J.g.r.t.1.M.A.Z . O 3 5 & x h . @       o X X ",
"      X X       X 9 9   0 #.B Y k.V.a.B.F.m.1.x.y.4 . + 6 o : x o   o   X @ o X ",
"                X 9 9   u X.C T k.n.S.~.`.^.N.;.l.! . + 6 @ @ h * X o   X o X   ",
"      X       X o a 9 X D o.C =.H.n.E.(.).).L.3.z.e.O q < $ & m - .     X $     ",
"              o @ ` l   s *.C &.U.C.K.W.Y.!.I.:.l.w.O * , q & j - @     o r X X ",
"      X           q a . # $.I J f.Y.D.G.U._.d.+.c.( . # , r & * - @     . g @   ",
"      X         X . ) @ @ F %.L U g.G.Q.T.v.+.9.a.V h 9 0 @ X & r o     X r o X ",
"                .   c ) O $ Q ,.R K X.1.@. .<.c.~ v ' + w o o & >       o n &   ",
"          X           [ a + 0 / q.9.-.O.<.p.s.(   _ t + @ o o & @       & g o   ",
"                  . X $ ] 1 , 9 8 / 0.u.t.( B + z q O 1   o o @ . o X   & o     ",
"          X       X o . q _ k t .   1 y X   $ w $ + 0 & X @ @ @   @ X   & o X X ",
"                        o a _ ) a a # 9 w s s 9 + z o   X @ X o X . X X ; o     ",
"            X             . . O z ) a 9 9 a q $ $ o   . X       X X X o o       ",
"              X           X o X o q q 9 t z @ o X X o X @     @       X X X     ",
"              X             X       o     & o   X X . @ =   o   X X o X         ",
"                  X               X o     .     o   = o   X     & o X X         ",
"      X X           o X                   X X @ o X .         * g & X           ",
"      o % o         o o               X o X X     X   o     = g o X X o         ",
"        X o ; X             X               X     X     o g n o     X X         ",
"            o X               X X X X X o X         X @ & | ;     X             ",
"            X   o o                               X = o j :   o                 ",
"                = = X o o     X X           X o * @ X g >   X                   ",
"                        ; o X > = = f > & & d > o   X o X                       ",
"                        X o ; M b b M d g o = o   X   X X                       "
};
