/* XPM */
static char *ZXhpdA__[] = {
/* columns rows colors chars-per-pixel */
"48 48 14 1 ",
"  c #6E5967",
". c #926475",
"X c #AD707B",
"o c #D2727E",
"O c #5D7889",
"+ c #728896",
"@ c #B98080",
"# c #86A0A8",
"$ c #C39490",
"% c #E28989",
"& c #EDA799",
"* c #FBCAAE",
"= c #FAEBCF",
"- c None",
/* pixels */
"---------                              ---------",
"-------  *&  &***=*==*& &***=*===*& &&*  -------",
"-----  &***  ********** *********** ****&  -----",
"--- &=****&  &********& &*********& &&****=& ---",
"-- &=***&%%  %%%%%%%%%% %%%%%%%%%%% %%%&***=& --",
"-- ****&%%o                         oo%%&**** --",
"- &***&%%    .XXXXXXX.  O  .XXXXXX.    %%&***& -",
"- ****%%   ..XXXXXXXXX  O  XXXXXXXX.    %%**** -",
" &***&%                 O                %&***& ",
" ****%  .XX@@$$$$$$$@X  +  X@$$$$$$$@@X.  %**** ",
" &**&%  XXX$$$$$$$$$$X  +  X$$$$$$$$$$XX  %&**& ",
"                        O                       ",
" &**&%    X$$$$$$$$$$$X + X$$$$$$$$$XX    %&**& ",
" ****% O+O $$$$$$$$$$$$ O $$$$$$$$$$  O+O %**** ",
" =***% +#+ $$$$$$$$$$$$ + $$$$$$$$$$  +#+ %***= ",
" ****% X$$$$$$$$$$$$$$X # X$$$$$$$$$$$$$X %**** ",
" =***%                  #                 %***= ",
" ****%                  # X$$$$$$$$$$$$$X %**** ",
" ****% .XXXXXXXXXXXXXX. + $$$$$$$$$$$$$$$ %**** ",
" ****% XXXXXXXXXXXXXXXX # $$$$$$$$$$$$$$$ %**** ",
" &**&% .XXXXXXXXXXXXXX. + X$$$$$$$$$$$$$X %&**& ",
" &**&% X$$$$$$$$$$$$$$X O X$$$$$$$$$$$$$X %&**& ",
" ****% $$$$$$$$$$$$$$$$ O $$$$$$$$$$$$$$$ %**** ",
" =***% $$$$$$$$$$$$$$X     X$$$$$$$$$$$$$ %***= ",
" =***% X$$$$$$$$$$$$@ ## ## @$$$$$$$$$$$X %***= ",
" ****%                +# +#               %**** ",
" =***%                +# +# X$$$$$$$$$$$X %***= ",
" ****%  XXXXXXXXXXXXX +# +# $$$$$$$$$$$$$ %**** ",
" ****%  .XXXXXXXXXXX. +# +# X$$$$$$$$$$$X %**** ",
" &**&%                +# +#               %&**& ",
"       X$$$$$$$$$$$$X +# +#                     ",
" &**&% $$$$$$$$$$$$$$ +# +# .XXXXXXXXXX.  %&**& ",
" ****% $$$$$$$$$$$$$$ +# +# XXXXXXXXXXXX  %**** ",
" =***%                +# +#               %***= ",
" ****% X$$$$$$$$$$$$@ O# O# @$$$$$$$$$$$$ %**** ",
" =***%    X$$$$$$$$$$X  O  X$$$$$$$$XX    %***= ",
" ****% +#+ $$$$$$$$$$$@ O @$$$$$$$$$  +#+ %**** ",
" ****% O+O $$$$$$$$$$$$ + $$$$$$$$$$  O+O %**** ",
" ****%    X$$$$$$$$$$$X + $$$$$$$$$$XX    %**** ",
"       .XXXXXXXXXXXXX.  O X$$$$$$$$$$$$$X       ",
" &**&% XXXXXXXXXXXXXXX  + $$$$$$$$$$$$$$$ %&**& ",
" ****% .XXXXXXXXXXXXX.  O $$$$$$$$$$$$$$$ %**** ",
" =***%                  + X$$$$$$$$$$$$$X %***= ",
" =***%                  O                 %***= ",
" ****% X$$$$$$$$$$$$$$X O                 %**** ",
" %%%%o X$$$$$$$$$$$$$$X O  .XXXXXXXXXXX.  o%%%% ",
"                                                ",
"                                                "
};
