/* XPM */
static char *result[] = {
/* columns rows colors chars-per-pixel */
"40 40 24 1 ",
"  c #050A15",
". c #0A0A17",
"X c #070A19",
"o c #0B0B1B",
"O c #120B1D",
"+ c #180A1F",
"@ c #0E0B21",
"# c #130B23",
"$ c #1A0B24",
"% c #160A29",
"& c #1A0A2B",
"* c #151225",
"= c #1B122A",
"- c #1D0A30",
"; c #230A2D",
": c #2F0736",
"> c #240A33",
", c #290935",
"< c #2D073B",
"1 c #31063B",
"2 c #300B3A",
"3 c #350541",
"4 c #3E0248",
"5 c #41044A",
/* pixels */
"$+O$+OOO+O+O.OO............O.....O..O.O.",
"#++++++O+++O..........O............O.O..",
"$$$;$$++++OOO+....+..OOO+............O..",
"+$;:;+;+O+OOO.O.+OO+O.OO+O....O...O...O.",
"O#$$;$+O.......OOOOOO.O.OO+.O...oO..Oooo",
"ooo*OOO......O.O+..OO.O.O++....OoooOOOOO",
"o.oOOo.......O.....OO.O..OOO...Oo..oO+$$",
"ooOOo..o...........O.O.O..O.........#$##",
"ooo#o..o .    ....o....o...........o#&$#",
"ooXo.          .Oo..o.o ......oo#XooO&&#",
"oXo             o .oooo......oo*######&#",
"ooo             .  ooOoX.*...oo.o##$&&##",
"XXXXXX          X.Xoo*.oooo..  oo@%%%%@@",
"XXXX               *  o Xoo .*o.o@%%%@@@",
"XXXX                * oooXooX*oXXo@%%@@X",
"oXXX                XX XooXXX **Xo@%%@@X",
"@@XX            .     XXoXo Xo@o@@@@@@@@",
"@oXX           X.     oXXo  oo@@@@@@XX@X",
"XXXX          XX        XXo*@@@@@%@@XXXX",
"@XXXo        XXXo      ooXoo@o@@@@@XXXXX",
"XXXX        XXXX oX   oo@XXXX@@%-@@@@XXX",
"XXXX         XXX XX   XoXX@XX@@%%@@@@@XX",
"              XX  o XXX@@XXoX@@%-@@@@@XX",
"   X         XXXX  ooXX@@XXXX@@%-@@X@X@X",
"      XXXXX   XXXXXXoXX@XX  XX@@%%@@@@@@",
"    X  XXXXX XXXXX@XXXX@XX   X@@%%@@@@@@",
"    XXXXXXXXXXXX@@XXXXX@X  XXX@@@@@@@@@@",
"     XXXXo@@#@@@@@@@XXXoX  XXX@@@@@@@@@@",
"     XXXX@@@&%@@@@XXXo@@@*o Xo@@@@@@oX@@",
"    X XXX@@@&&%@@@@@X@@@@o XXo@oo@oo@@@%",
"  X XXoXXo@&-&#o@o#@*@@o  XXoXXX@oX@@@@#",
"  XXXXXXXX@#%@#o@@@--*@Xooooo@oXXXXo@%%#",
"XXXXXXXoo@o@*--%##%>-@oooo oo@*oXXo@#%%%",
"XXoXoooo@oO@#,3>>$%$#@o.o  Xo.oX.Xoo##@%",
" ooX@@@ooooo#&>3<&$###oo.X.ooXX.ooXoo@@&",
"XXoooOoOooO@#&>343&o##oo..o@o.oooooo@o@$",
"Xoooo@oo.o#$#>>,55$#oOoooooOo.o#oooO#@Oo",
"ooOo@ooooo#$$2>&11$#O##O=#Ooo.oOOoo@oooO",
"ooOoOOoo.o#$;1;$$$###O#$##OOooOO@o*Ooooo",
"O####oo..O#$::$$$#O$$###$$###oOo#O$*oo.."
};
