/* XPM */
static char *Zmxvb3JfMV80OHg0OC4_[] = {
/* columns rows colors chars-per-pixel */
"48 48 147 2 ",
"   c #6F533D",
".  c #72563F",
"X  c #76593D",
"o  c #7C5D3E",
"O  c #725641",
"+  c #785746",
"@  c #765A45",
"#  c #7A5C45",
"$  c #7C5D49",
"%  c #7D6246",
"&  c #7D614A",
"*  c #80623E",
"=  c #836446",
"-  c #876947",
";  c #896B47",
":  c #83644C",
">  c #86694C",
",  c #8B6C4D",
"<  c #8E714D",
"1  c #91734F",
"2  c #856551",
"3  c #886756",
"4  c #866A52",
"5  c #8C6C53",
"6  c #8C6C59",
"7  c #906F5D",
"8  c #8E7152",
"9  c #8D725A",
"0  c #927355",
"q  c #957955",
"w  c #997B57",
"e  c #94755A",
"r  c #96795B",
"t  c #9A7B5C",
"y  c #967661",
"u  c #987766",
"i  c #947863",
"p  c #9C7C62",
"a  c #9E7E68",
"s  c #9E815E",
"d  c #A0825E",
"f  c #9E8162",
"g  c #9D8168",
"h  c #A08162",
"j  c #A28462",
"k  c #A38563",
"l  c #A08164",
"z  c #A08165",
"x  c #A18265",
"c  c #A28364",
"v  c #A08067",
"b  c #A28367",
"n  c #A28366",
"m  c #A38465",
"M  c #A48664",
"N  c #A58765",
"B  c #A48566",
"V  c #A58667",
"C  c #A28464",
"Z  c #A68866",
"A  c #A78967",
"S  c #A68865",
"D  c #A98B67",
"F  c #A08069",
"G  c #A18168",
"H  c #A28269",
"J  c #A1816B",
"K  c #A3836A",
"L  c #A2826B",
"P  c #A38468",
"I  c #A48569",
"U  c #A58669",
"Y  c #A68768",
"T  c #A4846B",
"R  c #A5866A",
"E  c #A6876A",
"W  c #A6876B",
"Q  c #A3836C",
"!  c #A4846D",
"~  c #A6866D",
"^  c #A7876F",
"/  c #A58669",
"(  c #A78869",
")  c #A7886B",
"_  c #A7886C",
"`  c #A5896B",
"'  c #A98B69",
"]  c #A88A68",
"[  c #A8896A",
"{  c #A98A6B",
"}  c #AA8C6A",
"|  c #A8896D",
" . c #A98A6D",
".. c #AA8B6C",
"X. c #A8886F",
"o. c #AB8C6D",
"O. c #AB8C6F",
"+. c #AC8E6C",
"@. c #AC8D6E",
"#. c #AD8E6F",
"$. c #AA8C6B",
"%. c #AF916F",
"&. c #AE916F",
"*. c #B1936F",
"=. c #A58570",
"-. c #A78C71",
";. c #A98970",
":. c #A88871",
">. c #AB8B72",
",. c #AC8D71",
"<. c #AE8F70",
"1. c #AC8C75",
"2. c #AF8F76",
"3. c #AC8E71",
"4. c #AF9071",
"5. c #AF9073",
"6. c #AE9171",
"7. c #B09172",
"8. c #B19273",
"9. c #B29472",
"0. c #B29374",
"q. c #B19276",
"w. c #B39475",
"e. c #B59775",
"r. c #B49576",
"t. c #B59677",
"y. c #B29474",
"u. c #B59876",
"i. c #B99B77",
"p. c #B29279",
"a. c #B2927B",
"s. c #B69778",
"d. c #B59779",
"f. c #B79879",
"g. c #B7997A",
"h. c #B99B79",
"j. c #B99A7B",
"k. c #BA9C7A",
"l. c #BB9D7B",
"z. c #BA9B7C",
"x. c #BC9D7E",
"c. c #BA9D7C",
"v. c #BE9F80",
"b. c #BFA081",
"n. c #C3A682",
"m. c #C7A987",
"M. c #C9AB89",
/* pixels */
"%.] @.k.k.*.e.m.9.D p d D D D +.{ a e 2 : : 3 , 2 = * : : : 2 y ; = 1 4.z...e w ..s.z.p.0.s.0.Y ",
"d t ' l.k.+.' e.S t t D D S d a p u e 5 , 2 : : : : : 5 2 : = 2 5 ; 0 >.r.B w 1 4.f.z.s.s.s.0.Y ",
"t p @.x.z.] t t e 0 t D D p t t t u y t a u 7 5 2 3 e p y 7 2 3 e 5 w ..4.B t t 7.s.f.p.p.0.4.[ ",
"o.] 7.t.5.t < , 0 0 t p a w 1 0 p u p a a a p e : 3 y a a t 7 0 5 , 1 p ..( p Y @.@.0.7.7.4...( ",
"7...] I p t < 8 1 , 0 t t e 0 e a a t t p p w 5 = 5 e e e e 0 5 5 , 5 e c p a D Y Y [ ....o.Y ( ",
"V p e 0 0 0 r r , , 5 t t e w p 0.{ p p p u e 5 7 e e 5 5 5 5 5 1 5 1 w w t w w d p d Y ( Y Y o.",
"t r 0 0 t p p p 1 0 t p p w e p >.a p p a a p 0 0 t t e 5 0 e 5 1 w w w w p p p p t t Y [ Y Y @.",
"e r t t c ] p t t p p { p 0 1 0 e 0 0 e a ..a w 2 0 e 5 5 e w 5 w t p t a D <.<.t w t Y o.Y o.0.",
"p p p p t e e 0 6 e t e p ~ ~ p w t a p t t t t t 0 ; , w p t e t 0 e t @.0...a w t a w w D *.p ",
"m p c p p p t t 0 t a ~ { >.Y e t p t w p a a t p t t t t t t e w t t t a a t w t D D D w a D D ",
"a p p p t p a a t a @.2.p.2.a e @.a a p a *.p 0 5 t a a t 0 0 t w w w t w t w 1 D D a w a D a p ",
"p p e e e p a a p a a @.>.@.Y p a *.@.o.*.+.t ; * 5 w t w 0 w p , w t w w t t p D a D a t D D a ",
"p e 0 6 6 e p a a a t y u a a ~ +.@.o.a t w 5 ; ; ; w w t a a a w w t a p a [ @.+.a a D a *.a a ",
"p y 7 6 5 7 y u a t 5 5 7 e a a *.*.a w 1 1 t p t w w p a <.D D p a ....D a o.*.*.D a D +.*.*.*.",
"a a y e e e y p ^ y 7 7 e 7 e p D a w 1 1 w a p w w p D D D t w ........*.+.+.8.i.D a *.*.+.D *.",
":.a a p t y y p a p e a p 7 6 0 ; 1 ; ; w t w 1 , 1 w D a t w 1 ..[ ......*.0.0.*.D w p +.p w p ",
";.G a a 1.p.G , e 5 5 a a 5 5 u ; , , 1 0 1 1 5 , 5 0 w t t 0 , a 4.r.*.+.*.j.r.p p p a +.p p p ",
"a p 7 e a T a 7 7 : : e u 7 5 e 0 1 , 0 w t t w 0 w t p t t t t w t a a <.*.a w p t p D a a a D ",
"5 7 7 5 3 7 p a e 3 3 e p e e u t 0 , 0 w p p t 0 t p p p t p a w 0 0 t a @.t : t t p a a p p p ",
": 5 5 : : 5 e u e : : 7 t u e e a 0 , , w p t w 1 0 w t t t w w p 7 6 7 a a w : t t t p t 7 , 5 ",
"3 5 5 : 5 5 7 5 5 : : 3 5 5 5 , p 1 ; , w p t t 0 0 w t p t w ; u u u u u 3 2 : w 7 e p u 5 2 : ",
"5 5 5 5 5 e 5 = 5 5 5 , 3 , , 5 0 , , w a a +.+.t t t t p t 1 , 6 u u a 7 2 * + 5 7 7 u u 7 3 6 ",
", 5 5 , 5 0 5 , t p p 0 , 2 5 5 , 5 w p *.*.+.+.D ..@.a t 1 0 e u 7 7 7 3 : : : 3 6 7 u u 7 6 3 ",
", , 7 , , 5 5 5 w p p 7 = = , , 0 w p a +.a p t ..r.f.a 5 ; 1 a a 7 2 + : + 2 7 6 3 7 u u 3 : : ",
"5 , = , 5 7 w 0 D p t e 0 , , , p t 0 0 w w t w w p a D a a t w y 7 u u 3 2 3 3 6 7 3 6 7 2 : 3 ",
"e 1 , 5 0 t t p m m t t w 5 5 5 w 7 1 1 t p a V t p D <.*.V w , : 3 y y 3 7 7 : 6 7 7 y a 6 2 7 ",
"1 1 , 1 0 0 t p c t t w 0 5 1 5 w 1 1 1 t a D *.D p *.b.b...0 1 : 2 y u 7 u u * : 3 2 3 u 6 2 6 ",
"7 1 5 , 1 w t p t p p t e w 1 , e e w t w t a a D p ..b.x.V t a 0 2 0 p u y 7 = * 2 : : 6 3 : 5 ",
"w t 0 w t p c Y p ..D p t t 0 ; 1 e t t t t w e t 0 t [ a 0 t 8.w * : a t 3 , 5 3 e 5 : 5 e 5 t ",
"0 e t w 0 p h Y D *.0.V p p t , , 0 t p t t w t , , , 1 ; = 1 a 5 * : u t , 5 0 7 p e : 0 e 0 t ",
"0 0 0 0 1 w t B a *.*.D c B w 1 1 w t t w w t p 0 0 1 1 , 1 1 , ; , t a t e t 1 : w 0 : 0 e 6 0 ",
"w w t w w w d D w D *.m t m t ; p p t w w w t a [ a p t p p 1 * ; a j...w { a = = w 0 5 t w 0 1 ",
"* d D w w @.s.@.s.B c ( ( t p o.s s q s s q q q s s q < q g s q q g -.-.g s & & < < 1 s f d w < ",
", d @.d d @.s.f.0.p e B >.T p B q < < < q < q q s g g g g g g q q g -.-.g s s s % < s f s s w s ",
"1 w d d t d [ w.t.p w B 8.X.t 1 < < q q s q q q q g g -.-.-.g q q q q g s s q 9 < q s f d d d D ",
"1 ; w d d 0 t [ Y w e B 2.o.p 7 < q s ` S s q < q q g ` g -.-.q 9 < 9 q 9 9 < < q q f f S S D D ",
"1 ; w D B 1 0 c 1 1 w a #.<.X...< q s s s q 9 < < q g g g -.-.-.i q i q s g s s t q q w d d d s ",
"1 1 1 B d 1 5 0 0 t a ( a p a ( s s q < < s s s 4 q i q q -.-.-.g g q g g s s g t 0 , 1 s s 1 ; ",
"1 1 1 1 1 1 1 1 a ..8.D t e t p 6.&.g q q g g g < q 9 q g -.-.g s i q i q s q q w 0 < 1 w s 1 ; ",
"w d w 1 1 0 w 0 p a a p t p ( @.-.u.6.` q g s & 4 4 4 4 q g i 9 i q q q q i q 9 0 0 w s d s w 1 ",
"*.*.D 1 1 p a w D t 0 0 t u a r.-.6.u.6.` s s g > 4 4 i g g i 4 a e 5 0 e t 1 - 0 , 0 d M w t } ",
"i.*.D p p p t w 0 w p p 1 , p s.c.c.c.-.g s s g 4 4 & 4 9 9 4 2 p 0 5 5 e t e 0 = - 1 q w q d } ",
"*.w w *.i.D t a 1 w p p 7 , 0 a ` -.-.g s s & & 9 > & & 4 6 6 9 e e e e r t p M = p *.+.d w d d ",
"*.w w D i.*.<.s.p w 1 e t t 0 1 < 9 s f & & % @ 4 4 & 4 9 i i y 8 e t p t t p Y - 5.M.x.D D D d ",
"*.w w w a i.i.i.a e , 0 t t t 5 q 9 s s 8 > % % & & 4 9 7 7 3 3 : 6 p p r 0 r p = ..l.*.d } i.*.",
"D D D D t D *.*.w e w t t 7 a >.` g 9 & % % % & . @ 4 4 2 : + + * 5 e t 1 5 1 0 t *.*.d w } i.9.",
"D w *.*.a t t *.p p t a p p a #.g g q & % & & &   O @ & : : : * : 5 0 0 8 5 w t %.s.i.*.D *.d d ",
"w 1 D n.f.w w i.i.a w p 7.<.a w r s i r q 4 & @   O @ @ : 2 7 w 5 0 0 0 8 0 p ..p m *.l.n.l.d 1 "
};
