/* XPM */
static char *bGVmdA__[] = {
/* columns rows colors chars-per-pixel */
"48 48 23 1 ",
"  c #3C384F",
". c #3F3851",
"X c #25667E",
"o c #E44B3B",
"O c #B9355C",
"+ c #DA4949",
"@ c #E36254",
"# c #F07860",
"$ c #EF895A",
"% c #CD8674",
"& c #F69972",
"* c #F6C27D",
"= c #5F7D93",
"- c #298A91",
"; c #37AB9C",
": c #768EA1",
"> c #8CA9B5",
", c #DEB19C",
"< c #ECD4BE",
"1 c #FFEFA9",
"2 c #A5C2C7",
"3 c #F2F7F6",
"4 c None",
/* pixels */
"444444444444444444444444444444444444444444444444",
"444444444444444444444444444444444444444444444444",
"444444444444444444444444444444444444444444444444",
"444444444444444444444444444444444444444444444444",
"444444444444444444444444444444444444444444444444",
"444444444444444444444444444444444444444444444444",
"444444444444444444444444444444444444444444444444",
"444444444444444444444444444444444444444444444444",
"444444444444444444444444444444444444444444444444",
"444444444444444444444444444444444444444444444444",
"444444444444444444444444444444444444444444444444",
"444444444444444444444444444444444444444444444444",
"444444444444444444444444444444444444444444444444",
"444444444444444444444444444444444444444444444444",
"444444444444444444444444444444444444444444444444",
"444444444444444444444444444444444444444444444444",
"444444444444444444444444444444444444444444444444",
"444444444444..4.......44....44444444444444444444",
"44444444444.*1.1*1***$..$*$o.4444444444444444444",
"44444444444.11.1....**..**$$.4444444444444444444",
"44444444444.11*1$.$$***$**$$.4444444444444444444",
"44444444444.*1*1*******$**$o.4444444444444444444",
"44444444444..................4444444444444444444",
"4444444444.33.23.2222.2::=.:=.444444444444444444",
"4444444444.33.23.2222.2::=.:=.444444444444444444",
"4444444444....................444444444444444444",
"4444444444..+%.,,,,,,.%++++O..444444444444444444",
"44444444444.@,<<<<<<<<,@++++.4444444444444444444",
"44444444444.#<<#####<<<##@++.4444444444444444444",
"44444444444.####..########++.4444444444444444444",
"44444444444.####.+##&#####+O.4444444444444444444",
"44444444444.####&&######+@+..4444444444444444444",
"44444444444.############++....444..........44444",
"4444444444..@#########+@.O.%,<.4.>>22332333.4444",
"4444444444..@#########+@.O.%,<.4.>>22332333.4444",
"444444444.<.+@+@##++@#++...,<<.4.::>>>>>>>3.4444",
"444444444.<.++.+++++++.O..%,<<.4.::>2>>>2>2.4444",
"444444..4.,..O.O+O..+O...%%..<.4.::>:>>>:>3.4444",
"4444..32.........................::>>>>>>>2.4444",
"4444..2>..=>>>22333323222>>>==...::>>>>>>>2.4444",
"4444..>=.........................::>>>>>>>2.4444",
"444444..444.................4444.::>>>>>>>2.4444",
"44444444444.X-------------X.4444.::>2>>>2>2.4444",
"44444444444.---;;-;;;;-----.4444.::>:>>>:>2.4444",
"44444444444.---;;-;;;;-----.4444.::>:>>>:>2.4444",
"44444444444.X. .........X--.4444.==:::::::>.4444",
"444444444444..4444444444.X-.44444..........44444",
"4444444444444444444444444.X.44444444444444444444"
};
