/* XPM */
static char *cGxheWVy[] = {
/* columns rows colors chars-per-pixel */
"48 48 23 1 ",
"  c #3C384F",
". c #3F3851",
"X c #25667E",
"o c #E44B3B",
"O c #B9355C",
"+ c #DA4949",
"@ c #E36254",
"# c #F07860",
"$ c #EF895A",
"% c #CD8674",
"& c #F69972",
"* c #F6C27D",
"= c #5F7D93",
"- c #298A91",
"; c #37AB9C",
": c #768EA1",
"> c #8CA9B5",
", c #DEB19C",
"< c #ECD4BE",
"1 c #FFEFA9",
"2 c #A5C2C7",
"3 c #F2F7F6",
"4 c None",
/* pixels */
"444444444444444444444444444444444444444444444444",
"444444444444444444444444444444444444444444444444",
"444444444444444444444444444444444444444444444444",
"444444444444444444444444444444444444444444444444",
"444444444444444444444444444444444444444444444444",
"444444444444444444444444444444444444444444444444",
"444444444444444444444444444444444444444444444444",
"444444444444444444444444444444444444444444444444",
"444444444444444444444444444444444444444444444444",
"444444444444444444444444444444444444444444444444",
"444444444444444444444444444444444444444444444444",
"444444444444444444444444444444444444444444444444",
"444444444444444444444444444444444444444444444444",
"444444444444444444444444444444444444444444444444",
"444444444444444444444444444444444444444444444444",
"444444444444444444444444444444444444444444444444",
"444444444444444444444444444444444444444444444444",
"44444444444444444444....44.......4..444444444444",
"4444444444444444444.o$*$..$***1*1.1*.44444444444",
"4444444444444444444.$$**..**....1.11.44444444444",
"4444444444444444444.$$**$***$$.$1*11.44444444444",
"4444444444444444444.o$**$*******1*1*.44444444444",
"4444444444444444444..................44444444444",
"444444444444444444.=:.=::2.2222.32.33.4444444444",
"444444444444444444.=:.=::2.2222.32.33.4444444444",
"444444444444444444....................4444444444",
"444444444444444444..O++++%.,,,,,,.%+..4444444444",
"4444444444444444444.++++@,<<<<<<<<,@.44444444444",
"4444444444444444444.++@##<<<#####<<#.44444444444",
"4444444444444444444.++########..####.44444444444",
"4444444444444444444.O+#####&##+.####.44444444444",
"4444444444444444444..+@+######&&####.44444444444",
"44444..........444....++############.44444444444",
"4444.33323322>>.4.<,%.O.@+#########@..4444444444",
"4444.33323322>>.4.<,%.O.@+#########@..4444444444",
"4444.3>>>>>>>::.4.<<,...++#@++##@+@+.<.444444444",
"4444.2>2>>>2>::.4.<<,%..O.+++++++.++.<.444444444",
"4444.3>:>>>:>::.4.<..%%...O+..O+O.O..,.4..444444",
"4444.2>>>>>>>::.........................23..4444",
"4444.2>>>>>>>::...==>>>22232333322>>>=..>2..4444",
"4444.2>>>>>>>::.........................=>..4444",
"4444.2>>>>>>>::.4444.................444..444444",
"4444.2>2>>>2>::.4444.X-------------X.44444444444",
"4444.2>:>>>:>::.4444.-----;;;;-;;---.44444444444",
"4444.2>:>>>:>::.4444.-----;;;;-;;---.44444444444",
"4444.>:::::::==.4444.--X......... .X.44444444444",
"44444..........44444.-X.4444444444..444444444444",
"44444444444444444444.X.4444444444444444444444444"
};
