/* XPM */
static char *result[] = {
/* columns rows colors chars-per-pixel */
"40 40 52 1 ",
"  c black",
". c #010101",
"X c #020202",
"o c #020203",
"O c gray1",
"+ c #040404",
"@ c gray2",
"# c #050506",
"$ c #060606",
"% c #060607",
"& c #060707",
"* c #070707",
"= c #070708",
"- c gray3",
"; c #090809",
": c #090909",
"> c #0A0808",
", c #0B0808",
"< c gray4",
"1 c #0B0A0A",
"2 c #0A0B0B",
"3 c #0B0B0B",
"4 c #0C0808",
"5 c #0B0B0C",
"6 c #0C0C0C",
"7 c #0D0D0C",
"8 c #0C0C0D",
"9 c gray5",
"0 c #0F0D0D",
"q c #0E0E0E",
"w c gray6",
"e c #14090A",
"r c #16090A",
"t c #110E0D",
"y c #100F0F",
"u c #150E0F",
"i c #180B0C",
"p c #0F0F10",
"a c #101010",
"s c #101011",
"d c #111111",
"f c #111112",
"g c #121213",
"h c #141415",
"j c #161617",
"k c #191611",
"l c #181719",
"z c #3A0F11",
"x c #3C0F11",
"c c #261514",
"v c #342C1B",
"b c None",
/* pixels */
"bbbbbbbbbbbbbbbbbbbbbbbbbbbbbbbbbbbbbbbb",
"bbbbbbbbbbbbbbbbbbbbbbbbbbbbbbbbbbbbbbbb",
"bbbbbbbbbbbbbbbbbbbbbbbbbbbbbbbbbbbbbbbb",
"bbbbbbbbbbbbbbbbbbbbbbbbbbbbbbbbbbbbbbbb",
"bbbbbbbbbbbbbbbbbbbbbbbbbbbbbbbbbbbbbbbb",
"bbbbbbbbbbbbbbbbbbbbbbbbbbbbbbbbbbbbbbbb",
"bbbbbbbbbbbbbbbbbbbbbbbbbbbbbbbbbbbbbbbb",
"bbbbbbbbbbbbbbbbb@$**$@bbbbbbbbbbbbbbbbb",
"bbbbbbbbbbbbbbb-bObbbb+b-bbbbbbbbbbbbbbb",
"bbbbbbbbbbbbb-bbb$bbbb*bbbbbbbbbbbbbbbbb",
"bbbbbbbbbbbb-bbb:*###=;<bbbbbbb$bbbbbbbb",
"bbbbbbbbbbbbbbbsf@X..o8lsbbbbbb*bbbbbbbb",
"bbbbbbbbbbb-bbgh@    .bpjgbb-bbbbbbbbbbb",
"bbbbbbbbbb$bbwa.     .bb%dwbb$bbbbbbbbbb",
"bbbbbbbbb**b9wX       .X+Ow6b--:bbbbbbbb",
"bbbbbbbbbb*b<@            $<b-b*bbbbbbbb",
"bbbbbbbb$b-b*.            .*b:b-bbbbbbbb",
"bbbbbbbb$b-bO              Ob:b*bbbbbbbb",
"bbbbbbbb*b-bX              Xb:bbbbbbbbbb",
"bbbbbbbbbb-bO              Ob:bbbbbbbbbb",
"bbbbbbbbb-*b-              -q::bbbbbbbbb",
"bbbbbbbbbbb<bX            Xb:bbbbbbbbbbb",
"bbbbbbbbbbb$99X          X9qbbbbbbbbbbbb",
"bbbbbbbbbbb*:d9O        X9a<bbbbbbbbbbbb",
"bbbbbbbbbbbb<*wb*O.  .O*b9:bbbbbbbbbbbbb",
"bbbbbbbbbbbb<:33wbb99bbw<bbbbbbbbbbbbbbb",
"bbbbbbbbbbbb-<-$*-6353-&bbbbbbbbbbbbbbbb",
"bbbbbbbbbbbbb-:4ib0tkybebbbbbbbbbbbbbbbb",
"bbbbbbbbbbbbbbbrzbucvbbxbbbbbbbbbbbbbbbb",
"bbbbbbbbbbbbbbbb>b267b1,bbbbbbbbbbbbbbbb",
"bbbbbbbbbbbbbbbb*:bbbb--bbbbbbbbbbbbbbbb",
"bbbbbbbbbbbbbbbbb:3bb<:bbbbbbbbbbbbbbbbb",
"bbbbbbbbbbbbbbbbbbbbbbbbbbbbbbbbbbbbbbbb",
"bbbbbbbbbbbbbbbbbbbbbbbbbbbbbbbbbbbbbbbb",
"bbbbbbbbbbbbbbbbbbbbbbbbbbbbbbbbbbbbbbbb",
"bbbbbbbbbbbbbbbbbbbbbbbbbbbbbbbbbbbbbbbb",
"bbbbbbbbbbbbbbbbbbbbbbbbbbbbbbbbbbbbbbbb",
"bbbbbbbbbbbbbbbbbbbbbbbbbbbbbbbbbbbbbbbb",
"bbbbbbbbbbbbbbbbbbbbbbbbbbbbbbbbbbbbbbbb",
"bbbbbbbbbbbbbbbbbbbbbbbbbbbbbbbbbbbbbbbb"
};
