/* XPM */
static char *d2FsbA__[] = {
/* columns rows colors chars-per-pixel */
"48 48 7 1 ",
"  c #6E5967",
". c #926475",
"X c #AD707B",
"o c #B77F83",
"O c #C39490",
"+ c #D1B1A5",
"@ c #DCCABE",
/* pixels */
"                                                ",
"OOOOOOOOOOOOOOOOOOOOOOO OOOOOOOOOOOOOOOOOOOOOOO ",
"OOOOOOOOOOOOOOOXXXXXOO  OOOOOOOOOOOOOOOXOXXXOO  ",
"OOOOOOOOOOOOOOOOO++OOOo OOOOOOOOOOOOOOOO++++OOO ",
"OOOOOOOOOOOOOOOOOOOOOOO OOOOOOOOOOOOOOOOOOOOOOO ",
"XOOOOOOOOOOOOOOOOOOOOOX XOOOOOOOOOOOOOOOOOOOOOO ",
"                                                ",
"OOOOOOOOOOO OOOOOOOOOOOOOOOOOOOOOOO OOOOOOOOOOOO",
"OOOOOXXXOO  OOOOOOOOOOOOOOOOOXXOOO  OOOOOOOOOOOO",
"OOOO+O+OOOo OOOOOOOOOOOOOOOOOO++OOO OOOOOOOOOOOO",
"OOOOOOOOOOO OOOOOOOOOOOOOOOOOOOOOOO OOOOOOOOOOOO",
"OOOOOOOOOOX XOOOOOOOOOOOOOOOOOOOOOO XOOOOOOOOOOO",
"                                                ",
"OOOOOOOOOOOOOOOOOOOOOOO OOOOOOOOOOOOOOOOOOOOOOO ",
"OOOOOOOOOOOOOOOOOOOOOOO OOOOOOOOOOOOOOOOOOOOOOO ",
"OOOOOOOOOOOOOOOOOOOOOOo OOOOOOOOOOOOOOOOOOOOOOO ",
"OOOOOOOOOOOOOOOOOO+++OO OOOOOOOOOOOOOOOOOO+O+OO ",
"XOOOOOOOOOOOOOOOOOOOOOX XOOOOOOOOOOOOOOOOOOOOOO ",
"                                                ",
"OOOOOOOOOOO OOOOOOOOOOOOOOOOOOOOOOO OOOOOOOOOOOO",
"OOOXXOOOO   OOOOoXXXXXXXXXXXXXXoOOO OOOOOOOOOOOO",
"OOOOOOO+O+o OOOOXXXXXXXXXXXXXXXXOOO OOOOOOOOOOOO",
"OOOOOOOOOOO OOOOXXXXX.    .XXXXXOOO OOOOOOOOOOOO",
"OOOOOOOOOOX XOOoXXXX.      .XXXXoOO XOOOOOOOOOOO",
"                                                ",
"XOOO+++OO+OOOOOoXXX          XXXoOOOOOOOOOOOOOO ",
"OOOOOOOOOOOOOOOOXXX.        .XXXOOOOOOOXOXXXOO  ",
"OOOOOOOOOOOOOOOOXXXXXX. .XXXXXXXOOOOOOOO++++OOO ",
"OOOOOOOOOOOOOOOOXXXXXXX XXXXXXXXOOOOOOOOOOOOOOO ",
"XOOOOOOOOOOOOOOoXXXXXX. .XXXXXXXoOOOOOOOOOOOOOO ",
"                                                ",
"++OOOOOOOOX XOOOXXXXXXXXXXXXXXXXOOO XOO+O+++OOOO",
"OOOOOXXXOO  OOOOOOOOOOOOOOOOOOOOOOO OOOOOOOOOOOO",
"OOOO+O+OOOo OOOOOOOOOOOOOOOOOXXOO   OOOOOOOOOOOO",
"OOOOOOOOOOO OOOOOOOOOOOOOOOOOO++OOO OOOOOOOOOOOO",
"OOOOOOOOOOX XOOOOOOOOOOOOOOOOOOOOOO XOOOOOOOOOOO",
"                                                ",
"XOO+++@@+O+OOOOOOOOOOOX XOO+O+@@+O+OOOOOOOOOOOO ",
"OOOOOOOOOOOOOOOOOOOOOOO OOOOOOOOOOOOOOOOOOOOOOO ",
"OOOOOOOOOOOOOOOOOOOOOOo OOOOOOOOOOOOOOOOOOOOOOO ",
"OOOOOOOOOOOOOOOOXXOO    OOOOOOOOOOOOOOOOOXOX    ",
"XOOOOOOOOOOOOOOOOOOOOOX XOOOOOOOOOOOOOOOOOOOOOO ",
"                                                ",
"OOOOOOOOOOX XOO++++@@+OOOOOOOOOOOOO XOO+O++@@++O",
"OOOXXOOOO   OOOOOOOOOOOOOOOXXOOXO   OOOOOOOOOOOO",
"OOOOOOO+O+o OOOOOOOOOOOOOOOO+OO+O+O OOOOOOOOOOOO",
"OOOOOOOOOOO OOOOOOOOOOOOOOOOOOOOOOO OOOOOOOOOOOO",
"OOOOOOOOOOX XOOOOOOOOOOOOOOOOOOOOOO XOOOOOOOOOOO"
};
