/* XPM */
static char *result[] = {
/* columns rows colors chars-per-pixel */
"40 40 252 2 ",
"   c #060A0E",
".  c #01070F",
"X  c #060C13",
"o  c #090D14",
"O  c #060F19",
"+  c #0A0F19",
"@  c #07111B",
"#  c #0A111C",
"$  c #091017",
"%  c #12111D",
"&  c #100E1A",
"*  c #0C1423",
"=  c #0A1826",
"-  c #0D1629",
";  c #0D192C",
":  c #061422",
">  c #121424",
",  c #13152B",
"<  c #1A152C",
"1  c #13192D",
"2  c #19182C",
"3  c #0E1B34",
"4  c #0C1738",
"5  c #131631",
"6  c #1A1734",
"7  c #141A33",
"8  c #1B1B34",
"9  c #141C3B",
"0  c #1B1B3A",
"q  c #121739",
"w  c #0E0F29",
"e  c #211B34",
"r  c #231B3C",
"t  c #291B36",
"y  c #32183B",
"u  c #0B2238",
"i  c #18213E",
"p  c #2B223E",
"a  c #151C43",
"s  c #1C1D43",
"d  c #161E4A",
"f  c #141D51",
"g  c #231C43",
"h  c #271D47",
"j  c #331E48",
"k  c #2C1E54",
"l  c #15224B",
"z  c #1C224D",
"x  c #172445",
"c  c #1B2354",
"v  c #1A2459",
"b  c #1A2B5D",
"n  c #1B2953",
"m  c #143257",
"M  c #0C254B",
"N  c #26214D",
"B  c #272448",
"V  c #36244B",
"C  c #232353",
"Z  c #2A2454",
"A  c #23265C",
"S  c #2B245D",
"D  c #282A58",
"F  c #3B2B5A",
"G  c #362555",
"H  c #2F395E",
"J  c #1C2C63",
"K  c #1B2D6A",
"L  c #19346B",
"P  c #182D73",
"I  c #1B3679",
"U  c #252A64",
"Y  c #2D2B64",
"T  c #232C6C",
"R  c #2A2666",
"E  c #332A62",
"W  c #3D2B64",
"Q  c #352B6B",
"!  c #382767",
"~  c #28336D",
"^  c #33306C",
"/  c #39326A",
"(  c #2D2F73",
")  c #352D74",
"_  c #3B2E78",
"`  c #283779",
"'  c #3D3173",
"]  c #393879",
"[  c #43265E",
"{  c #41335C",
"}  c #4D2D6C",
"|  c #452D69",
" . c #483366",
".. c #54346A",
"X. c #462C74",
"o. c #532E79",
"O. c #4C3474",
"+. c #4B347C",
"@. c #463679",
"#. c #53357B",
"$. c #57377A",
"%. c #512C69",
"&. c #62367B",
"*. c #793C79",
"=. c #49427D",
"-. c #6F4C7D",
";. c #1F3A80",
":. c #273786",
">. c #353A84",
",. c #393A87",
"<. c #3F2D81",
"1. c #542F82",
"2. c #4D3C82",
"3. c #483987",
"4. c #5D3C83",
"5. c #5C3D8A",
"6. c #553888",
"7. c #583D94",
"8. c #4A368B",
"9. c #673B86",
"0. c #683C96",
"q. c #79388B",
"w. c #1E438D",
"e. c #1E4D94",
"r. c #25478B",
"t. c #3B468C",
"y. c #2A4996",
"u. c #3A4993",
"i. c #395599",
"p. c #31548D",
"a. c #1A649F",
"s. c #29619B",
"d. c #1C52A1",
"f. c #284CA1",
"g. c #2758A5",
"h. c #3E57A5",
"j. c #394BA4",
"k. c #3B69B6",
"l. c #2873BE",
"z. c #3173BE",
"x. c #2D63AB",
"c. c #45448B",
"v. c #574589",
"b. c #484798",
"n. c #534C9C",
"m. c #59459A",
"M. c #59509C",
"N. c #4B5690",
"B. c #6C448E",
"V. c #64448D",
"C. c #694697",
"Z. c #794798",
"A. c #79599E",
"S. c #695495",
"D. c #4949A4",
"F. c #564CA3",
"G. c #4656A8",
"H. c #5856A5",
"J. c #565AB3",
"K. c #4C5BB9",
"L. c #6A4BA4",
"P. c #774AA7",
"I. c #6757A9",
"U. c #7858A6",
"Y. c #6A58B2",
"T. c #765AB5",
"R. c #4A61AF",
"E. c #4865B7",
"W. c #4A79BB",
"Q. c #5E65B1",
"!. c #6565AB",
"~. c #6864B5",
"^. c #726CBD",
"/. c #7965B6",
"(. c #6675BF",
"). c #696E9A",
"_. c #3379C5",
"`. c #4E74C4",
"'. c #6B6CC4",
"]. c #756EC3",
"[. c #AC3696",
"{. c #854899",
"}. c #8E5398",
"|. c #8747A8",
" X c #8759A7",
".X c #8559B4",
"XX c #965CB7",
"oX c #9354B0",
"OX c #A75BB6",
"+X c #B346AB",
"@X c #8265AA",
"#X c #8766BB",
"$X c #9667B9",
"%X c #8777BE",
"&X c #946BB5",
"*X c #A468BA",
"=X c #A671B4",
"-X c #9C6296",
";X c #CC56BB",
":X c #9668C1",
">X c #9D7CC5",
",X c #977DCB",
"<X c #886EC6",
"1X c #A777C7",
"2X c #B276C9",
"3X c #B76DCD",
"4X c #A85EC7",
"5X c #C17BCF",
"6X c #C96DCB",
"7X c #7E84BD",
"8X c #4F85B8",
"9X c #3985CD",
"0X c #538FCF",
"qX c #7D82C9",
"wX c #688FD3",
"eX c #5AB2DE",
"rX c #6DA9DC",
"tX c #6ABAE2",
"yX c #7BC4DC",
"uX c #8281BC",
"iX c #AD89BE",
"pX c #9884CA",
"aX c #8B8FD4",
"sX c #A585C6",
"dX c #B788CC",
"fX c #B093D5",
"gX c #8EAFDD",
"hX c #88A7E1",
"jX c #88BCE3",
"kX c #A6A9E2",
"lX c #D78CD7",
"zX c #DA97DD",
"xX c #C790D5",
"cX c #CCA9DB",
"vX c #C781E2",
"bX c #E48DE0",
"nX c #F0B5E7",
"mX c #DA9BDD",
"MX c #9BC6DD",
"NX c #91C6E4",
"BX c #B3CCE5",
"VX c #BCE5E9",
"CX c #D8C3DC",
"ZX c #E1C5DD",
"AX c #CCCAE7",
"SX c #E9C4E3",
"DX c #F1D3E7",
"FX c #F5CDE9",
"GX c #D9EBE9",
"HX c #FBE7EB",
"JX c #FDFCEC",
"KX c #F0F8F1",
/* pixels */
"  X $ X X q 3.h d v :.c.m.I.P ) 4XP._ 5.nX6XG q s > > > > ! 6.: o @ @ = @ $ o $ ",
"    X X   5 ' ' a T n.J.n.H.P 3.Y.8.7.|.U.Q C 0 7 > > , 0 0 2.6 o # # = # o o o ",
"    $ - : 5 +.+.z K H.].R.:.( ` <.7.vX*XT U s q 1 , * 0 N a / 6 o = # - = $ $ o ",
"    # = # : ! Q U K H.aXBXF.3.<X3X:XbX2X8.U f 6 , , 7 k c a D i # = : = = # $ o ",
"    # X O + q +.8.m.T.'.aX'.T.T.P.$XoXoX|.X.f v q 0 h R c f ^ 7 : 7 ; = = # $ # ",
"o   X # + O @ R Y.I.I.^.].fX'.b.Y.T.7.8.0.8.f ) _ k ) E c J U 9 3 x 9 3 = # # # ",
"    X # # o : d #XI.J.,XR.n.#XF.0.P.<.<.R R f 1._ A R R v ~ T l x 9 M a = * # # ",
"  X X O # O O M G.].1XH./.( ( L.:XP.0.X.k R R .X7.c v Q J ` ` v l l l l 7 * * # ",
"X X X $ + O # 4 :.I.T.H./.*XQ 0.XX0.Z.1.+.+.' P.8.U Q ( P :.:.J P K L b a - * # ",
"  X X $ : w # 4 f ,.1XF.#X1X X*X3XZ.=X&.k 5.1.A.#X,.( T :.j.w.I ;.:.w.I c l 8 , ",
"  X o $ w O w a ;.Y.fXY.U.pXzXlX&.o.B.o.+.+.' XX.XI.>.>.j.f.f.d.g._.k.>.T Y g G ",
"X X # # X O 4 v K.'.>XsXL.xXDXDX XG N Z {.6.B.5X9.>X].Y.y.;.l.0XNXNXaX/.` ) Z h ",
"  X o # o 7 v ,.K.~.cXcXcXcXHXcX$.F G s } #.V.*XP.zXsXu.:.f._.BXJXKXrXR.>.Y C q ",
"X X o # # # a :.:.y.pX~.cXJXHXcX,.g | E B.=.S.2XOXC.C.H.'.G.`.AXJXGXeXd.` n a a ",
"X o o o # # = c v ( !.` 1XdX:X<Xn.c.C.2. XV.U. X&. .6.M.i.h.`.hXtXNX0Xr.K J c k ",
"o   & $ $ = * 9 ` L aXM.&X<X:X:X<XT.C.C.U.@.A.V.&.|.2.) ~ b.].wXl.9X_.i.Y v d s ",
"  X X + O - ; c t.k.].<X<Xj.<X.XU.pX,X%X*XA.$XP.$.[ Z ^ Y L.,X`.g.r.e.r.` Z g e ",
"X + o + O - l J i.9X0XaXY.G.D.C.T.pXcXfX>X XB.' =. .V | ] v.J.qX7Xp.x.y.e.b 0 r ",
"o o + + X n Y f i.kXqXgXwXwXb.b.b.cX#X:XI.F.v.^ V.=.*.OXP.2.#X~.hXwXk.I m x 6 r ",
"X o O + X F 5X2XuXAXcXGXrX`.` c.T.CXcXxXv.8.#.' ] D =XnX2Xb.t.R.l.g.K 5 , , 6 1 ",
"o X o + @ i =.S.ZXVXGXJXNX9Xe.T <XHXHX$X&.W / F  .&.;XbXP.C.Q.aX`.p.0 - > , > > ",
"  o +   V &X$.~ MXyXeXVXgXE.;.b./.SXHX@Xo.} O.#.%.[.+X;XZ.^.f.j.u.,.s 5 * , > + ",
"o o + X -.JXZX~ a.9Xl.0XhX(.F.<Xm.=XFXfX6.&.9.O.| {.{.OXC.` p.;.J n 0 , , , , > ",
"X X o m S.SX).p.8XW.R.E.k.'.~.U.v.&XSXsXL.oX4.' o.G $.1.o.s p.i.K v 5 w 6 < > % ",
"; 3 u L @X.XM s.s.N.R.D.` D.m.U.9.=XDXdXZ. XZ.! &.q.}.&.} B b L ` L 9 1 g 6 % + ",
"= u i ] n N.t.a.x.N.D.D.c.t.b.M.E dXdXm.4.9.0.{.q.oXlXlXS.v.+.c.` ~ b g r * # # ",
"@ : - F u n F.W.8XG.H.~.Q.:.,.A Q dXU.D V.6.o.V..X2XzXxX:X7.2.' Y C J a # # % # ",
"O # # > 2 > H (.].fXuX!.c.] ( E @.sX{ 9 B.@.F !  X>XC.V. X0.t.C a 9 l x * > % & ",
"O O @ + 8 , x E A.5XT.U.2.Q U +.@. XB , B | Z B N A.=.@.@.m.` c s 0 i ; * > = % ",
"# @ O X 2 ; 2 i XXP.3.v.Y U v.5.+.{.B 2 6 0 2 * D N.c.=.f @.I.z 7 ; 3 - 1 = % # ",
"# @ X $ 7 i * B  Xv.C E Y C ' C.B.[ p 2 8 r , k +.S C n 7 /.v.7 1 ; 9 ; ; 1 = > ",
"= = $ # : i # > =.V.Y +.v.s S q.&.[ > > r k | 1.C 1 1 i v./.=.0 1 7 1 1 ; * > > ",
"= u $ X # > > 2 G | 7.7.' D ! B.{.< > [ | | o.h > & > ^ M.t.U.{ = 2 > # = # % % ",
"$ u = X # : 2 > 8 5.' +.6.3.k Z...< &.9.! k < w + o 0 U z E v.XX .t i i Z Z B V ",
"  = u $ $ # 2 % r #.' @.C.| X...w F q.Z.| % % , + + 1 5 > 1 F $. Xv.+.O.Q W j V ",
"X X = u X > e % 2 5.C.X.B.{.9.6 r } Z.j , e % w + * + # * # * > > n B B 0 t < < ",
"  X X M = u e 2 , Z.C.! 9.} w g | o.[ w % 6 r & > + % + + > 1 7 > ; i V p e e 2 ",
"  X X = u 1 < < V 9..XV.} 5 h } F [ > % 5 , g w > + + o + > , 0 2 = % 2 e > [ y ",
"  X X X m x = y *...$X..6 k #.Z g < , , 5 , 0 > + + o + O + % , x i 2 $ 2 % V V ",
"    X # m M p -X}.Z.4.w V o.G Z 0 < 5 < > , 6 > & + + + + + & % i n p % 2 % V p "
};
